# xmcd
#
# Track frame offsets:
#	150
#	20166
#	46724
#	70369
#	96556
#	120253
#	144907
#	168520
#	194302
#	210442
#	225609
#	252209
#	269142
#	296517
#	313476
#
# Disc length: 4420 seconds
#
# Revision: 1
# Processed by: cddbd v1.5.2PL0 Copyright (c) Steve Scherf et al.
# Submitted via: audiograbber 1.83.01
#
DISCID=e211420f
DTITLE=Capo - World of Rave
DYEAR=1900
DGENRE=
TTITLE0=Unbekannt - 9 PM
TTITLE1=Unbekannt - Adiemus-Remix
TTITLE2=Floorfilla - Cyberdream
TTITLE3=Unbekannt - Face To Face
TTITLE4=Fred Feuerstein - Fred come To Bed
TTITLE5=Unbekannt - Galaxy
TTITLE6=Unbekannt - Hand in Hand
TTITLE7=Unbekannt - Rave Nation
TTITLE8=Masterboy - Show Me Colours
TTITLE9=A-ha - Sun Always Shines on TV - techno
TTITLE10=Unbekannt - Sweat
TTITLE11=Garcia  - Te Quiero, Latina
TTITLE12=Bonnie Tyler - Total Ecilpse Of The Heart - Techno
TTITLE13=Starsplash - Wonderful Days
TTITLE14=Unbekannt - Wonderland
EXTD=
EXTT0=
EXTT1=
EXTT2=
EXTT3=
EXTT4=
EXTT5=
EXTT6=
EXTT7=
EXTT8=
EXTT9=
EXTT10=
EXTT11=
EXTT12=
EXTT13=
EXTT14=
PLAYORDER=
